HIERARCHY
ROOT Hips
{
	OFFSET 0.000000 0.000000 0.000000
	CHANNELS 6 Xposition Yposition Zposition Xrotation Yrotation Zrotation
	JOINT LeftUpLeg_virtual
	{
		OFFSET 0.000000 0.000000 0.000000
		CHANNELS 3 Xrotation Yrotation Zrotation
		JOINT LeftUpLeg
		{
			OFFSET 11.394100 -6.187798 -0.413800
			CHANNELS 3 Xrotation Yrotation Zrotation
			JOINT LeftLeg
			{
				OFFSET 0.430247 -32.302673 3.732800
				CHANNELS 3 Xrotation Yrotation Zrotation
				JOINT LeftFoot
				{
					OFFSET -0.430247 -48.264931 -6.423300
					CHANNELS 3 Xrotation Yrotation Zrotation
					JOINT LeftToeBase
					{
						OFFSET 4.230900 -16.068199 23.438400
						CHANNELS 3 Xrotation Yrotation Zrotation
						JOINT LeftToe_End
						{
							OFFSET 4.510700 0.695400 19.974600
							CHANNELS 3 Xrotation Yrotation Zrotation
							End Site
							{
								OFFSET 0 0 0
							}
						}
					}
				}
			}
		}
	}
	JOINT RightUpLeg_virtual
	{
		OFFSET 0.000000 0.000000 0.000000
		CHANNELS 3 Xrotation Yrotation Zrotation
		JOINT RightUpLeg
		{
			OFFSET -11.333700 -6.187798 -0.413800
			CHANNELS 3 Xrotation Yrotation Zrotation
			JOINT RightLeg
			{
				OFFSET -0.430392 -32.302628 3.733000
				CHANNELS 3 Xrotation Yrotation Zrotation
				JOINT RightFoot
				{
					OFFSET 0.430392 -48.264973 -6.423500
					CHANNELS 3 Xrotation Yrotation Zrotation
					JOINT RightToeBase
					{
						OFFSET -4.230900 -16.068199 23.438400
						CHANNELS 3 Xrotation Yrotation Zrotation
						JOINT RightToe_End
						{
							OFFSET -4.510700 0.695400 19.974600
							CHANNELS 3 Xrotation Yrotation Zrotation
							End Site
							{
								OFFSET 0 0 0
							}
						}
					}
				}
			}
		}
	}
	JOINT Spine_virtual
	{
		OFFSET 0.000000 0.000000 0.000000
		CHANNELS 3 Xrotation Yrotation Zrotation
		JOINT Spine
		{
			OFFSET -0.002400 12.777504 0.315300
			CHANNELS 3 Xrotation Yrotation Zrotation
			JOINT Spine1
			{
				OFFSET -0.002067 5.816869 0.032633
				CHANNELS 3 Xrotation Yrotation Zrotation
				JOINT Spine1_split
				{
					OFFSET -0.002067 5.816869 0.032633
					CHANNELS 3 Xrotation Yrotation Zrotation
					JOINT Spine2
					{
						OFFSET -0.002067 5.816869 0.032633
						CHANNELS 3 Xrotation Yrotation Zrotation
						JOINT Neck_virtual
						{
							OFFSET 0.000000 0.000000 0.000000
							CHANNELS 3 Xrotation Yrotation Zrotation
							JOINT Neck
							{
								OFFSET -0.003700 21.199493 -0.826900
								CHANNELS 3 Xrotation Yrotation Zrotation
								JOINT Head
								{
									OFFSET 0.000000 20.442200 4.834800
									CHANNELS 3 Xrotation Yrotation Zrotation
									JOINT HeadTop_End
									{
										OFFSET 0.000000 34.668396 4.968400
										CHANNELS 3 Xrotation Yrotation Zrotation
										End Site
										{
											OFFSET 0 0 0
										}
									}
								}
							}
						}
						JOINT LeftShoulder_virtual
						{
							OFFSET 0.000000 0.000000 0.000000
							CHANNELS 3 Xrotation Yrotation Zrotation
							JOINT LeftShoulder
							{
								OFFSET 3.288150 8.794197 -1.372250
								CHANNELS 3 Xrotation Yrotation Zrotation
								JOINT LeftShoulder_split
								{
									OFFSET 3.288150 8.794197 -1.372250
									CHANNELS 3 Xrotation Yrotation Zrotation
									JOINT LeftArm
									{
										OFFSET 11.953299 -2.279007 -0.146200
										CHANNELS 3 Xrotation Yrotation Zrotation
										JOINT LeftForeArm
										{
											OFFSET 18.448900 0.000000 0.000000
											CHANNELS 3 Xrotation Yrotation Zrotation
											JOINT LeftHand
											{
												OFFSET 29.527798 0.000000 0.000000
												CHANNELS 3 Xrotation Yrotation Zrotation
												End Site
												{
													OFFSET 0 0 0
												}
											}
										}
									}
								}
							}
						}
						JOINT RightShoulder_virtual
						{
							OFFSET 0.000000 0.000000 0.000000
							CHANNELS 3 Xrotation Yrotation Zrotation
							JOINT RightShoulder
							{
								OFFSET -3.249400 8.794197 -1.372250
								CHANNELS 3 Xrotation Yrotation Zrotation
								JOINT RightShoulder_split
								{
									OFFSET -3.249400 8.794197 -1.372250
									CHANNELS 3 Xrotation Yrotation Zrotation
									JOINT RightArm
									{
										OFFSET -11.953299 -2.279007 -0.146200
										CHANNELS 3 Xrotation Yrotation Zrotation
										JOINT RightForeArm
										{
											OFFSET -18.448900 0.000000 0.000000
											CHANNELS 3 Xrotation Yrotation Zrotation
											JOINT RightHand
											{
												OFFSET -29.527802 0.000000 0.000000
												CHANNELS 3 Xrotation Yrotation Zrotation
												End Site
												{
													OFFSET 0 0 0
												}
											}
										}
									}
								}
							}
						}
					}
				}
			}
		}
	}
}
MOTION
Frames: 9
Frame Time: 0.03333333
62.387016 96.335640 41.431206 0.000000 0.000000 0.000000 0.664979 66.447632 -4.474668 -42.849496 -12.024551 -3.563228 19.278921 -1.006576 -2.958979 20.881994 -17.505167 0.774535 0.995696 -3.935532 2.074484 0.000000 0.000000 0.000000 1.788477 70.368311 -5.918153 10.160392 -9.922029 3.157431 25.987634 3.435063 -4.362241 -0.423996 -18.898946 11.669011 -37.515173 0.069484 2.455663 0.000000 0.000000 0.000000 -0.074417 62.972910 -4.471962 6.329100 14.332706 -1.941085 -1.103756 12.437909 -1.440656 1.119028 -1.558815 0.474265 0.000000 0.000000 0.000000 -0.390424 12.388417 -1.801769 25.854612 -15.592396 7.714779 -32.238179 -68.252188 -1.625735 0.000000 0.000000 0.000000 -0.841771 12.374763 -1.423611 -2.979727 -7.479497 -16.046621 1.360327 3.599691 -4.428824 27.088978 -53.262068 -28.950115 -2.245628 -70.919630 -2.566406 0.000000 0.000000 0.000000 -1.127454 11.958594 -2.241607 -6.624478 32.316494 19.460227 -6.004810 -0.658631 1.997132 -3.979135 27.030656 53.999359 -3.590268 49.720369 -0.288203 0.000000 0.000000 0.000000 
61.888119 96.275665 41.075623 0.000000 0.000000 0.000000 0.479088 64.142457 -3.987573 -43.088737 -11.983347 -3.092441 20.162049 0.267754 -3.173630 20.269777 -17.174869 0.848014 1.491826 -3.926307 1.912614 0.000000 0.000000 0.000000 1.513618 68.083237 -5.395431 10.566688 -10.927658 2.330156 24.451488 2.277887 -4.330582 -4.712326 -20.674125 8.202831 -29.071467 -0.268334 3.865997 0.000000 0.000000 0.000000 0.022227 60.809304 -4.437128 6.468571 13.931094 -1.924637 -0.984598 11.936502 -1.214017 1.024672 -1.709474 0.528167 0.000000 0.000000 0.000000 -0.322320 11.925253 -1.567790 23.990884 -15.063945 6.935854 -31.206130 -67.692222 -0.937106 0.000000 0.000000 0.000000 -0.916647 11.962315 -1.288924 -2.903887 -7.027329 -15.984775 0.627000 3.756700 -4.343526 28.789777 -55.271639 -27.681012 -0.874365 -68.489722 -1.399040 0.000000 0.000000 0.000000 -1.081081 11.603440 -2.002743 -6.923066 31.473460 20.422383 -5.969362 -0.375917 2.243098 -4.613983 25.452673 54.655502 -3.367750 49.300743 -0.350687 0.000000 0.000000 0.000000 
61.281326 96.112495 40.700485 0.000000 0.000000 0.000000 0.450210 61.540715 -3.543300 -43.512280 -11.709351 -2.407154 21.585893 1.618250 -3.452523 19.216558 -16.875104 0.713733 1.843891 -3.879299 1.865828 0.000000 0.000000 0.000000 1.551468 65.437372 -4.962134 10.973011 -11.813515 1.417343 22.993014 0.949714 -4.333006 -8.155714 -22.871133 5.226952 -21.607595 -0.350324 4.865463 0.000000 0.000000 0.000000 0.042517 58.593939 -4.212371 6.569563 13.496940 -1.926846 -0.861296 11.388319 -1.067440 0.863572 -1.857180 0.541740 0.000000 0.000000 0.000000 -0.253033 11.392471 -1.410948 21.688880 -14.445642 5.692039 -29.361880 -66.843148 0.168145 0.000000 0.000000 0.000000 -0.938596 11.467458 -1.220994 -2.845880 -6.608912 -15.946320 0.177523 4.135163 -4.187775 29.700333 -56.801967 -27.095219 0.576439 -66.329920 -0.243580 0.000000 0.000000 0.000000 -0.953600 11.172611 -1.834072 -7.113347 30.632719 21.258086 -5.693083 -0.289314 2.477895 -5.068678 24.590252 54.497717 -3.142277 49.058524 -0.365210 0.000000 0.000000 0.000000 
60.612827 95.841019 40.316315 0.000000 0.000000 0.000000 0.594138 58.728207 -3.183159 -43.985134 -11.233288 -1.493666 23.419161 2.939562 -3.764089 17.887420 -16.490115 0.471283 1.856707 -3.808738 1.904191 0.000000 0.000000 0.000000 1.927085 62.543195 -4.698899 11.323165 -12.387999 0.514153 21.408028 0.019780 -4.456902 -10.623167 -24.887410 3.611322 -16.446319 -0.201787 4.834682 0.000000 0.000000 0.000000 0.126657 56.268560 -3.916935 6.592909 13.022370 -1.925563 -0.749356 10.786738 -0.964065 0.737823 -2.007552 0.590388 0.000000 0.000000 0.000000 -0.203275 10.779904 -1.287602 19.091306 -13.678018 3.820140 -26.428746 -65.529108 1.878404 0.000000 0.000000 0.000000 -0.928464 10.883049 -1.173479 -2.808200 -6.213334 -15.993738 0.046712 4.472801 -4.020038 29.285143 -57.530403 -27.778494 1.834382 -64.946370 0.692630 0.000000 0.000000 0.000000 -0.773946 10.627065 -1.720743 -7.165995 29.797885 21.905532 -5.350843 -0.444464 2.712530 -4.784935 24.405188 53.357591 -2.915538 49.603771 -0.349539 0.000000 0.000000 0.000000 
59.905903 95.543823 39.949627 0.000000 0.000000 0.000000 1.075563 55.737909 -3.053051 -44.373150 -10.597161 -0.359814 25.447859 4.116956 -4.047509 16.472876 -15.903628 0.299459 1.621575 -3.734812 1.963957 0.000000 0.000000 0.000000 2.488109 59.502354 -4.513508 11.501365 -12.758321 -0.227254 19.879817 -0.504797 -4.697735 -12.398805 -26.397754 3.243446 -13.438452 0.116145 3.678876 0.000000 0.000000 0.000000 0.431871 53.868507 -3.706394 6.526080 12.496284 -1.876670 -0.638089 10.113498 -0.851437 0.700527 -2.079589 0.592045 0.000000 0.000000 0.000000 -0.158173 10.075180 -1.150148 16.357535 -12.679039 1.296518 -22.766655 -63.702476 3.925153 0.000000 0.000000 0.000000 -0.884112 10.205614 -1.094878 -2.769583 -5.773896 -16.147144 0.079871 4.697529 -3.980514 27.522590 -57.267868 -29.821060 2.710714 -64.569753 1.301424 0.000000 0.000000 0.000000 -0.608407 9.954215 -1.604243 -7.082362 28.951734 22.357601 -4.971413 -0.633119 2.941268 -3.543626 24.670334 51.411329 -2.750894 51.443841 -0.298704 0.000000 0.000000 0.000000 
59.125092 95.247116 39.672901 0.000000 0.000000 0.000000 1.655283 52.777097 -3.013232 -44.529903 -9.766787 1.001190 27.368051 5.073190 -4.294692 15.085006 -15.062165 0.317645 1.392861 -3.654333 1.953193 0.000000 0.000000 0.000000 3.013553 56.449369 -4.286513 11.305156 -12.877644 -0.783644 18.479913 -0.613454 -4.992625 -14.179022 -27.136895 3.505564 -11.235927 0.529500 1.814768 0.000000 0.000000 0.000000 0.862650 51.504421 -3.572508 6.384749 11.891382 -1.779998 -0.519055 9.355708 -0.692011 0.732321 -2.082262 0.553407 0.000000 0.000000 0.000000 -0.093645 9.287178 -0.961864 13.663811 -11.485964 -1.726554 -18.771896 -61.453042 6.018803 0.000000 0.000000 0.000000 -0.780676 9.439472 -0.940994 -2.705948 -5.345865 -16.386035 0.197632 4.641937 -4.043612 25.054112 -56.203673 -32.617159 3.136893 -65.085180 1.542956 0.000000 0.000000 0.000000 -0.480743 9.168798 -1.437104 -6.867135 28.053810 22.635658 -4.571700 -0.616453 3.108624 -1.501035 25.079947 49.187778 -2.602274 54.825553 -0.265580 0.000000 0.000000 0.000000 
58.325188 95.029030 39.437218 0.000000 0.000000 0.000000 2.253609 49.835966 -3.018258 -44.429875 -8.704073 2.555297 28.807822 5.668342 -4.469282 13.824169 -14.025126 0.477193 1.275229 -3.582074 1.861023 0.000000 0.000000 0.000000 3.419974 53.534247 -4.064035 10.745946 -12.885306 -1.229680 17.429185 -0.419049 -5.283598 -15.875439 -26.931333 4.010025 -9.239426 0.917994 -0.136580 0.000000 0.000000 0.000000 1.311552 49.197467 -3.454922 6.197193 11.208360 -1.643081 -0.383420 8.532352 -0.470652 0.852607 -1.985312 0.514051 0.000000 0.000000 0.000000 0.016903 8.451885 -0.714986 11.194649 -10.122971 -4.953313 -15.001129 -58.966778 7.875900 0.000000 0.000000 0.000000 -0.608628 8.622666 -0.703201 -2.602934 -4.962086 -16.636112 0.318719 4.266132 -4.120206 22.482121 -54.756267 -35.579606 3.141581 -66.174001 1.503922 0.000000 0.000000 0.000000 -0.373228 8.311536 -1.207333 -6.564319 27.042003 22.848902 -4.173665 -0.245025 3.200108 1.030490 25.371163 47.096535 -2.429097 59.489698 -0.270328 0.000000 0.000000 0.000000 
57.487171 94.972122 39.237083 0.000000 0.000000 0.000000 2.737776 47.018264 -2.987980 -44.104775 -7.451187 4.228448 29.704663 5.778010 -4.566428 12.792751 -12.914563 0.585494 1.182796 -3.523015 1.757455 0.000000 0.000000 0.000000 3.622461 50.736957 -3.761993 9.720105 -12.842359 -1.644027 16.884086 -0.111074 -5.517228 -16.905007 -26.030713 4.660838 -7.596941 1.148246 -1.590976 0.000000 0.000000 0.000000 1.685847 46.950963 -3.306609 5.982210 10.473913 -1.484597 -0.229471 7.697137 -0.216640 0.920294 -1.830420 0.462686 0.000000 0.000000 0.000000 0.185147 7.632819 -0.434144 9.084662 -8.720025 -8.059868 -11.885963 -56.497812 9.269544 0.000000 0.000000 0.000000 -0.376731 7.818324 -0.414007 -2.446547 -4.653366 -16.857414 0.463268 3.887367 -4.148755 20.121181 -53.321726 -38.348647 2.884625 -67.375336 1.298224 0.000000 0.000000 0.000000 -0.275797 7.468630 -0.915238 -6.202759 25.885334 23.030232 -3.718136 0.247554 3.212574 3.457817 25.273305 45.482855 -2.244482 64.759599 -0.314189 0.000000 0.000000 0.000000 
56.627464 95.073936 39.040504 0.000000 0.000000 0.000000 2.956970 44.472058 -2.854229 -43.700066 -6.041915 5.965294 30.136598 5.341798 -4.628007 12.104133 -11.846207 0.458075 0.953164 -3.465877 1.699564 0.000000 0.000000 0.000000 3.622181 48.096468 -3.432105 8.386249 -12.659784 -2.064144 16.463051 0.343292 -5.729722 -17.090423 -24.641627 5.462647 -6.233180 1.137790 -2.271319 0.000000 0.000000 0.000000 1.847115 44.715319 -3.043957 5.757702 9.735145 -1.337430 -0.081386 6.922661 0.027292 0.943619 -1.599204 0.414576 0.000000 0.000000 0.000000 0.383813 6.898261 -0.156946 7.436108 -7.423979 -10.727166 -9.560599 -54.153776 10.200389 0.000000 0.000000 0.000000 -0.128188 7.092615 -0.128130 -2.244223 -4.470455 -16.997271 0.659162 3.680733 -4.066682 18.033293 -52.146363 -40.839193 2.646303 -68.310867 1.140047 0.000000 0.000000 0.000000 -0.153830 6.724877 -0.597349 -5.794794 24.571655 23.197563 -3.318226 0.639599 3.071114 5.309170 24.682393 44.465826 -2.034500 69.781994 -0.382036 0.000000 0.000000 0.000000 
